<svg width="30" height="30" viewBox="0 0 30 30" fill="none" xmlns="http://www.w3.org/2000/svg">
<path d="M15.0843 30L13.6662 29.2264V28.4527C13.6662 28.1948 13.7548 27.0774 13.7548 25.8739H13.223C9.58904 25.8739 6.13234 24.4986 3.65061 21.9198C1.08024 19.341 -0.160626 15.9885 0.0166405 12.4642C0.282541 5.41547 6.22097 0 13.5775 0H16.3252C22.9727 0 28.7338 4.46991 29.7974 10.659C30.152 12.808 30.0633 14.957 29.3543 17.0201C27.8475 23.2092 19.6932 27.5072 16.5911 29.1404C16.2365 29.3123 15.9706 29.4842 15.7047 29.5702L15.0843 30ZM13.5775 2.5788C7.81637 2.5788 2.85291 6.96275 2.58701 12.4642C2.49837 15.3009 3.47334 18.0516 5.51191 20.0287C7.55048 22.0917 10.2981 23.2092 13.223 23.2092H15.6161L16.4138 23.9828V24.5845C16.4138 25.1862 16.4138 25.702 16.4138 26.3037C19.6932 24.4986 25.7203 20.9742 26.7839 16.4183L26.8725 16.2464C27.493 14.6132 27.5816 12.808 27.3157 11.0888C26.3407 6.18911 21.7318 2.5788 16.3252 2.5788H13.5775Z" fill="white"/>
</svg>
