<?xml version="1.0" encoding="UTF-8"?>
<!DOCTYPE svg PUBLIC "-//W3C//DTD SVG 1.1//EN" "http://www.w3.org/Graphics/SVG/1.1/DTD/svg11.dtd">
<svg xmlns="http://www.w3.org/2000/svg" version="1.1" width="512px" height="512px" style="shape-rendering:geometricPrecision; text-rendering:geometricPrecision; image-rendering:optimizeQuality; fill-rule:evenodd; clip-rule:evenodd" xmlns:xlink="http://www.w3.org/1999/xlink">
<g><path style="opacity:0.933" fill="#025588" d="M 511.5,87.5 C 511.5,90.1667 511.5,92.8333 511.5,95.5C 487.207,115.288 463.04,135.288 439,155.5C 438.333,169.167 438.333,182.833 439,196.5C 480.388,246.476 504.555,303.81 511.5,368.5C 511.5,377.833 511.5,387.167 511.5,396.5C 510.684,398.144 509.35,399.31 507.5,400C 447.831,418.167 386.831,426 324.5,423.5C 323.66,437.232 322.16,450.899 320,464.5C 315.315,480.517 304.815,490.351 288.5,494C 267.195,495.549 245.862,496.549 224.5,497C 182.833,497.667 141.167,497.667 99.5,497C 76.7485,496.742 54.0819,495.409 31.5,493C 15.6141,487.78 6.11409,476.947 3,460.5C 1.88682,450.343 0.720158,440.343 -0.5,430.5C -0.5,409.833 -0.5,389.167 -0.5,368.5C 0.731922,357.272 2.23192,345.939 4,334.5C 8.85932,319.396 18.8593,309.396 34,304.5C 34.5254,296.59 36.8587,289.257 41,282.5C 45.7904,276.041 50.9571,269.874 56.5,264C 71.6218,250.943 87.2884,238.61 103.5,227C 109.833,221.333 116.167,215.667 122.5,210C 104.954,200.134 89.1209,187.968 75,173.5C 59.7095,153.698 57.3762,132.364 68,109.5C 81.4724,90.0253 99.9724,82.5253 123.5,87C 156.772,96.6183 172.605,118.785 171,153.5C 168.763,172.633 161.597,189.633 149.5,204.5C 170.659,216.582 192.326,227.915 214.5,238.5C 223.68,224.158 233.847,210.491 245,197.5C 245.833,183.155 245.666,168.822 244.5,154.5C 220.854,135.356 197.354,116.022 174,96.5C 171.697,91.9617 172.197,87.795 175.5,84C 197.798,64.7041 219.798,45.0374 241.5,25C 261.673,11.2537 282.673,9.92036 304.5,21C 311.5,26.6667 318.5,32.3333 325.5,38C 337.334,44.1979 349.001,43.8646 360.5,37C 369.139,28.0238 379.139,21.0238 390.5,16C 404.487,12.0605 418.154,12.8938 431.5,18.5C 435.702,23.3279 435.368,27.8279 430.5,32C 423.626,31.8281 416.793,30.9947 410,29.5C 407.906,29.5356 405.906,29.8689 404,30.5C 397.404,62.6743 385.071,92.3409 367,119.5C 360.3,127.675 351.966,133.342 342,136.5C 332.429,133.609 324.429,128.275 318,120.5C 299.179,92.8956 286.679,62.5622 280.5,29.5C 269.653,28.46 259.987,31.2933 251.5,38C 231.833,55.6667 212.167,73.3333 192.5,91C 210,105.167 227.5,119.333 245,133.5C 245.093,122.442 245.76,111.442 247,100.5C 251.076,96.966 255.409,96.6326 260,99.5C 261.485,130.412 261.985,161.412 261.5,192.5C 315.168,201.833 368.835,201.833 422.5,192.5C 422.015,161.412 422.515,130.412 424,99.5C 427.256,97.5715 430.756,97.0715 434.5,98C 436.049,99.214 437.215,100.714 438,102.5C 438.168,112.849 438.668,123.183 439.5,133.5C 456.688,119.144 474.021,104.978 491.5,91C 475.965,76.4627 460.131,62.296 444,48.5C 440.34,38.3203 443.84,34.1537 454.5,36C 473.721,53.0608 492.721,70.2275 511.5,87.5 Z M 298.5,38.5 C 298.897,37.475 299.563,37.3083 300.5,38C 318.578,58.5134 340.245,63.5134 365.5,53C 372.576,48.5942 379.076,43.4276 385,37.5C 379.484,63.0423 369.484,86.709 355,108.5C 351.466,112.369 347.633,115.869 343.5,119C 338.016,117.56 333.516,114.394 330,109.5C 321.524,98.2204 314.858,85.887 310,72.5C 305.831,61.1585 301.998,49.8251 298.5,38.5 Z M 109.5,101.5 C 137.412,103.746 152.745,118.746 155.5,146.5C 154.26,166.068 147.093,183.068 134,197.5C 116.64,188.145 100.973,176.478 87,162.5C 75.4804,147.219 74.4804,131.219 84,114.5C 90.9032,106.799 99.4032,102.466 109.5,101.5 Z M 256.5,208.5 C 295.998,214.293 335.665,216.126 375.5,214C 392.895,212.548 410.229,210.881 427.5,209C 470.636,260.483 493.303,319.983 495.5,387.5C 487.926,389.268 480.426,391.268 473,393.5C 470.804,371.403 467.804,349.403 464,327.5C 462.357,321.533 458.524,319.366 452.5,321C 449.118,323.019 447.784,326.019 448.5,330C 452.278,352.054 454.778,374.221 456,396.5C 450.233,398.021 444.399,399.354 438.5,400.5C 437.257,369.143 433.424,338.143 427,307.5C 422.667,303.5 418.333,303.5 414,307.5C 413.042,309.199 412.542,311.033 412.5,313C 418.507,342.572 421.173,372.406 420.5,402.5C 388.661,407.104 356.661,408.771 324.5,407.5C 325.444,381.938 323.61,356.604 319,331.5C 313.046,317.711 302.879,308.711 288.5,304.5C 284.037,291.746 276.704,280.912 266.5,272C 255.031,262.429 242.697,254.095 229.5,247C 237.552,233.457 246.552,220.623 256.5,208.5 Z M 137.5,217.5 C 159.318,228.909 181.318,240.076 203.5,251C 204.728,251.779 205.728,252.779 206.5,254C 198.885,269.351 192.551,285.185 187.5,301.5C 161.831,301.333 136.165,301.5 110.5,302C 104.842,303.829 103.008,307.663 105,313.5C 105.5,315.333 106.667,316.5 108.5,317C 145.167,317.333 181.833,317.667 218.5,318C 240.858,318.479 263.191,319.479 285.5,321C 294.178,323.678 300.345,329.178 304,337.5C 308.151,355.761 308.484,374.094 305,392.5C 302.293,405.205 294.46,412.371 281.5,414C 264.487,414.782 247.487,415.616 230.5,416.5C 230.667,405.495 230.5,394.495 230,383.5C 228.038,370.73 220.871,362.563 208.5,359C 180.167,357 151.833,357 123.5,359C 113.333,362.5 106.5,369.333 103,379.5C 101.685,391.795 101.185,404.128 101.5,416.5C 81.4978,415.795 61.4978,414.961 41.5,414C 26.4994,410.997 18.6661,401.83 18,386.5C 15.9145,371.121 16.2478,355.788 19,340.5C 21.6782,331.822 27.1782,325.655 35.5,322C 52.0956,320.147 68.7623,318.814 85.5,318C 92.1969,312.692 91.8636,307.692 84.5,303C 73.2676,302.933 62.1009,303.433 51,304.5C 50.8083,301.053 51.4749,297.72 53,294.5C 57.0703,287.76 61.9036,281.593 67.5,276C 84.546,261.952 101.879,248.286 119.5,235C 126.004,229.663 132.004,223.829 137.5,217.5 Z M 221.5,261.5 C 234.085,267.91 245.752,275.744 256.5,285C 261.737,290.4 266.403,296.234 270.5,302.5C 248.5,303.108 226.5,302.775 204.5,301.5C 208.996,287.683 214.662,274.35 221.5,261.5 Z M 131.5,373.5 C 154.836,373.333 178.169,373.5 201.5,374C 208.545,374.711 212.711,378.545 214,385.5C 214.667,399.833 214.667,414.167 214,428.5C 212.947,434.553 209.447,438.387 203.5,440C 178.5,442 153.5,442 128.5,440C 121.479,437.816 117.979,432.982 118,425.5C 117.333,413.167 117.333,400.833 118,388.5C 118.887,380.118 123.387,375.118 131.5,373.5 Z M 147.5,399.5 C 161.196,399.24 174.863,399.573 188.5,400.5C 188.5,405.167 188.5,409.833 188.5,414.5C 173.833,414.5 159.167,414.5 144.5,414.5C 143.167,409.833 143.167,405.167 144.5,400.5C 145.791,400.737 146.791,400.404 147.5,399.5 Z M 15.5,419.5 C 22.6157,425.72 30.949,429.22 40.5,430C 61.2087,430.612 81.8754,431.779 102.5,433.5C 105.818,445.984 113.818,453.484 126.5,456C 154.549,458.265 182.549,457.932 210.5,455C 221.028,450.977 227.361,443.477 229.5,432.5C 249.522,431.765 269.522,430.598 289.5,429C 296.58,427.544 302.747,424.377 308,419.5C 307.857,433.595 306.524,447.595 304,461.5C 300.321,469.849 294.154,475.349 285.5,478C 244.389,480.851 203.222,482.018 162,481.5C 123.809,481.732 85.6424,480.899 47.5,479C 32.9194,479.069 23.4194,472.236 19,458.5C 17.2474,445.548 16.0807,432.548 15.5,419.5 Z"/></g>
<g><path style="opacity:0.938" fill="#025588" d="M 148.5,383.5 C 165.521,383.305 182.521,383.805 199.5,385C 202.804,387.273 204.304,390.439 204,394.5C 204.667,402.833 204.667,411.167 204,419.5C 204.577,425.874 201.744,429.374 195.5,430C 175.833,430.667 156.167,430.667 136.5,430C 133.089,429.883 130.589,428.383 129,425.5C 128.677,419.317 128.177,413.15 127.5,407C 128.166,401.183 128.666,395.349 129,389.5C 129.833,387.333 131.333,385.833 133.5,385C 138.684,384.826 143.684,384.326 148.5,383.5 Z M 147.5,399.5 C 146.791,400.404 145.791,400.737 144.5,400.5C 143.167,405.167 143.167,409.833 144.5,414.5C 159.167,414.5 173.833,414.5 188.5,414.5C 188.5,409.833 188.5,405.167 188.5,400.5C 174.863,399.573 161.196,399.24 147.5,399.5 Z"/></g>
</svg>
