<svg width="30" height="30" viewBox="0 0 30 30" fill="none" xmlns="http://www.w3.org/2000/svg">
<path opacity="0.998" fill-rule="evenodd" clip-rule="evenodd" d="M6.24024 4.18947C5.55664 4.18947 4.87305 4.18947 4.18945 4.18947C4.18945 4.87306 4.18945 5.55665 4.18945 6.24025C4.19922 7.72478 4.18945 9.20914 4.16016 10.6934C3.78774 11.5874 3.13344 11.8902 2.19727 11.6016C1.80769 11.4074 1.54402 11.1046 1.40625 10.6934C1.36719 7.91996 1.36719 5.1465 1.40625 2.37306C1.57227 1.89454 1.89453 1.57228 2.37305 1.40626C5.20852 1.34852 8.04053 1.36805 10.8691 1.46486C11.6308 1.89361 11.8749 2.52837 11.6016 3.36915C11.4074 3.75873 11.1046 4.0224 10.6934 4.16017C9.20912 4.18947 7.72477 4.19923 6.24024 4.18947Z" fill="white"/>
<path opacity="0.999" fill-rule="evenodd" clip-rule="evenodd" d="M6.24023 4.18945C8.6015 6.58002 10.9746 8.96279 13.3594 11.3379C13.735 12.1119 13.608 12.7857 12.9785 13.3594C12.4317 13.6328 11.8847 13.6328 11.3379 13.3594C8.96279 10.9746 6.58002 8.6015 4.18945 6.24023C4.18945 5.55664 4.18945 4.87305 4.18945 4.18945C4.87305 4.18945 5.55664 4.18945 6.24023 4.18945Z" fill="white"/>
<path opacity="0.999" fill-rule="evenodd" clip-rule="evenodd" d="M25.752 23.7012C25.752 24.3848 25.752 25.0684 25.752 25.752C25.0684 25.752 24.3849 25.752 23.7012 25.752C21.34 23.3614 18.9669 20.9786 16.5821 18.6035C16.2065 17.8296 16.3335 17.1557 16.963 16.582C17.5098 16.3086 18.0567 16.3086 18.6036 16.582C20.9787 18.9669 23.3615 21.3399 25.752 23.7012Z" fill="white"/>
<path opacity="0.998" fill-rule="evenodd" clip-rule="evenodd" d="M23.7011 25.752C24.3847 25.752 25.0682 25.752 25.7518 25.752C25.7518 25.0684 25.7518 24.3848 25.7518 23.7012C25.7421 22.2167 25.7518 20.7323 25.7811 19.2481C26.1536 18.3541 26.8079 18.0513 27.744 18.3399C28.1336 18.5341 28.3973 18.8368 28.535 19.2481C28.5741 22.0215 28.5741 24.795 28.535 27.5684C28.369 28.0469 28.0468 28.3692 27.5682 28.5352C24.7328 28.5929 21.9008 28.5734 19.0722 28.4766C18.3105 28.0479 18.0664 27.4131 18.3397 26.5723C18.5339 26.1827 18.8367 25.919 19.2479 25.7813C20.7322 25.752 22.2165 25.7422 23.7011 25.752Z" fill="white"/>
<path d="M19 2C19 2 27.5 2.0001 28 2.50002C28.5 2.99995 28.5 12 28.5 12" stroke="white" stroke-width="2"/>
<path d="M11.5 27C11.5 27 3 26.9999 2.5 26.5C2 26.0001 2 17 2 17" stroke="white" stroke-width="2"/>
</svg>
