<svg width="42" height="42" viewBox="0 0 42 42" fill="none" xmlns="http://www.w3.org/2000/svg">
<path fill-rule="evenodd" clip-rule="evenodd" d="M21.0023 42C22.6592 42 24.0023 40.6568 24.0023 39L24.0023 24.0021L39 24.0021C40.6569 24.0021 42 22.6589 42 21.0021C42 19.3452 40.6569 18.0021 39 18.0021L24.0023 18.0021L24.0023 3C24.0023 1.34315 22.6592 0 21.0023 0C19.3455 0 18.0023 1.34315 18.0023 3L18.0023 18.0021L3 18.0021C1.34315 18.0021 -5.43234e-07 19.3452 -3.49957e-07 21.0021C-1.56681e-07 22.6589 1.34315 24.0021 3 24.0021L18.0023 24.0021L18.0023 39C18.0023 40.6569 19.3455 42 21.0023 42Z" fill="#025588"/>
</svg>
