{
  "accessors": [
    {
      "bufferView": 2,
      "componentType": 5126,
      "count": 2275,
      "max": [
        -1769.7666015625,
        1488.128173828125,
        -2262.1015625
      ],
      "min": [
        -2245.5078125,
        1123.5628662109375,
        -2500.039794921875
      ],
      "type": "VEC3"
    },
    {
      "bufferView": 2,
      "byteOffset": 27300,
      "componentType": 5126,
      "count": 2275,
      "max": [
        0.99931901693344116,
        0.98435699939727783,
        0.99999946355819702
      ],
      "min": [
        -0.99045312404632568,
        -0.92834204435348511,
        -0.99997848272323608
      ],
      "type": "VEC3"
    },
    {
      "bufferView": 3,
      "componentType": 5126,
      "count": 2275,
      "max": [
        0.99999696016311646,
        0.67609977722167969,
        0.99960881471633911,
        1
      ],
      "min": [
        -0.99996489286422729,
        -0.96645557880401611,
        -0.99820321798324585,
        -1
      ],
      "type": "VEC4"
    },
    {
      "bufferView": 1,
      "componentType": 5126,
      "count": 2275,
      "max": [
        0.84466594457626343,
        0.94142007827758789
      ],
      "min": [
        -0.4726405143737793,
        -0.024853229522705078
      ],
      "type": "VEC2"
    },
    {
      "bufferView": 0,
      "componentType": 5125,
      "count": 12750,
      "max": [
        2274
      ],
      "min": [
        0
      ],
      "type": "SCALAR"
    },
    {
      "bufferView": 2,
      "byteOffset": 54600,
      "componentType": 5126,
      "count": 4361,
      "max": [
        -1730.416259765625,
        1497.450927734375,
        -2227.856201171875
      ],
      "min": [
        -2303.62890625,
        722.064697265625,
        -2572.220458984375
      ],
      "type": "VEC3"
    },
    {
      "bufferView": 2,
      "byteOffset": 106932,
      "componentType": 5126,
      "count": 4361,
      "max": [
        0.9994322657585144,
        0.99548357725143433,
        0.9999241828918457
      ],
      "min": [
        -0.99996840953826904,
        -0.99673128128051758,
        -0.99999672174453735
      ],
      "type": "VEC3"
    },
    {
      "bufferView": 3,
      "byteOffset": 36400,
      "componentType": 5126,
      "count": 4361,
      "max": [
        0.99997866153717041,
        0.99935775995254517,
        0.99509727954864502,
        1
      ],
      "min": [
        -0.99999606609344482,
        -0.97769159078598022,
        -0.99394750595092773,
        -1
      ],
      "type": "VEC4"
    },
    {
      "bufferView": 1,
      "byteOffset": 18200,
      "componentType": 5126,
      "count": 4361,
      "max": [
        1.4145088195800781,
        0.36318302154541016
      ],
      "min": [
        -1.1831927299499512,
        -1.3429141044616699
      ],
      "type": "VEC2"
    },
    {
      "bufferView": 0,
      "byteOffset": 51000,
      "componentType": 5125,
      "count": 24486,
      "max": [
        4360
      ],
      "min": [
        0
      ],
      "type": "SCALAR"
    },
    {
      "bufferView": 2,
      "byteOffset": 159264,
      "componentType": 5126,
      "count": 1723,
      "max": [
        -1785.1630859375,
        1141.898193359375,
        -2200.98291015625
      ],
      "min": [
        -2248.890625,
        908.665771484375,
        -2590.390869140625
      ],
      "type": "VEC3"
    },
    {
      "bufferView": 2,
      "byteOffset": 179940,
      "componentType": 5126,
      "count": 1723,
      "max": [
        0.99919134378433228,
        0.98018288612365723,
        0.99916428327560425
      ],
      "min": [
        -0.99991703033447266,
        -0.51481175422668457,
        -0.99637871980667114
      ],
      "type": "VEC3"
    },
    {
      "bufferView": 3,
      "byteOffset": 106176,
      "componentType": 5126,
      "count": 1723,
      "max": [
        0.99987804889678955,
        0.97094690799713135,
        0.99910515546798706,
        1
      ],
      "min": [
        -0.99915337562561035,
        -0.92195236682891846,
        -0.99710780382156372,
        1
      ],
      "type": "VEC4"
    },
    {
      "bufferView": 1,
      "byteOffset": 53088,
      "componentType": 5126,
      "count": 1723,
      "max": [
        1.343660831451416,
        -0.005025133490562439
      ],
      "min": [
        -0.93221414089202881,
        -0.82302772998809814
      ],
      "type": "VEC2"
    },
    {
      "bufferView": 0,
      "byteOffset": 148944,
      "componentType": 5125,
      "count": 9534,
      "max": [
        1722
      ],
      "min": [
        0
      ],
      "type": "SCALAR"
    },
    {
      "bufferView": 2,
      "byteOffset": 200616,
      "componentType": 5126,
      "count": 2774,
      "max": [
        -1784.932861328125,
        1141.6319580078125,
        -2195.62060546875
      ],
      "min": [
        -2267.239501953125,
        778.31982421875,
        -2608.330322265625
      ],
      "type": "VEC3"
    },
    {
      "bufferView": 2,
      "byteOffset": 233904,
      "componentType": 5126,
      "count": 2774,
      "max": [
        0.99976497888565063,
        0.93355804681777954,
        0.99975967407226562
      ],
      "min": [
        -0.99988889694213867,
        -0.5236973762512207,
        -0.99894571304321289
      ],
      "type": "VEC3"
    },
    {
      "bufferView": 3,
      "byteOffset": 133744,
      "componentType": 5126,
      "count": 2774,
      "max": [
        0.99994724988937378,
        0.78182804584503174,
        0.99921190738677979,
        1
      ],
      "min": [
        -0.99997621774673462,
        -0.93270087242126465,
        -0.99995708465576172,
        -1
      ],
      "type": "VEC4"
    },
    {
      "bufferView": 1,
      "byteOffset": 66872,
      "componentType": 5126,
      "count": 2774,
      "max": [
        1.0877180099487305,
        -0.0014940500259399414
      ],
      "min": [
        -0.70562899112701416,
        -1.010318398475647
      ],
      "type": "VEC2"
    },
    {
      "bufferView": 0,
      "byteOffset": 187080,
      "componentType": 5125,
      "count": 15759,
      "max": [
        2773
      ],
      "min": [
        0
      ],
      "type": "SCALAR"
    },
    {
      "bufferView": 2,
      "byteOffset": 267192,
      "componentType": 5126,
      "count": 3273,
      "max": [
        -1780.6119384765625,
        1141.6319580078125,
        -2227.62255859375
      ],
      "min": [
        -2248.54736328125,
        685.1729736328125,
        -2604.067138671875
      ],
      "type": "VEC3"
    },
    {
      "bufferView": 2,
      "byteOffset": 306468,
      "componentType": 5126,
      "count": 3273,
      "max": [
        0.99993413686752319,
        0.93355804681777954,
        0.99975031614303589
      ],
      "min": [
        -0.99994218349456787,
        -0.48584112524986267,
        -0.99960565567016602
      ],
      "type": "VEC3"
    },
    {
      "bufferView": 3,
      "byteOffset": 178128,
      "componentType": 5126,
      "count": 3273,
      "max": [
        0.99998766183853149,
        0.95545488595962524,
        0.99932557344436646,
        1
      ],
      "min": [
        -0.9996904730796814,
        -0.72420966625213623,
        -0.99999523162841797,
        -1
      ],
      "type": "VEC4"
    },
    {
      "bufferView": 1,
      "byteOffset": 89064,
      "componentType": 5126,
      "count": 3273,
      "max": [
        0.81331813335418701,
        0.016831874847412109
      ],
      "min": [
        -0.6540183424949646,
        -0.98686695098876953
      ],
      "type": "VEC2"
    },
    {
      "bufferView": 0,
      "byteOffset": 250116,
      "componentType": 5125,
      "count": 18717,
      "max": [
        3272
      ],
      "min": [
        0
      ],
      "type": "SCALAR"
    }
  ],
  "asset": {
    "extras": {
      "author": "Osmium (https://sketchfab.com/Osmium)",
      "license": "CC-BY-4.0 (http://creativecommons.org/licenses/by/4.0/)",
      "source": "https://sketchfab.com/models/1dba9638e83145578b6ae73241100c5c",
      "title": "Floral Dress"
    },
    "generator": "Sketchfab-3.20.7",
    "version": "2.0"
  },
  "bufferViews": [
    {
      "buffer": 0,
      "byteLength": 324984,
      "byteOffset": 0,
      "name": "floatBufferViews",
      "target": 34963
    },
    {
      "buffer": 0,
      "byteLength": 115248,
      "byteOffset": 324984,
      "byteStride": 8,
      "name": "floatBufferViews",
      "target": 34962
    },
    {
      "buffer": 0,
      "byteLength": 345744,
      "byteOffset": 440232,
      "byteStride": 12,
      "name": "floatBufferViews",
      "target": 34962
    },
    {
      "buffer": 0,
      "byteLength": 230496,
      "byteOffset": 785976,
      "byteStride": 16,
      "name": "floatBufferViews",
      "target": 34962
    }
  ],
  "buffers": [
    {
      "byteLength": 1016472,
      "uri": "floralDress.bin"
    }
  ],
  "images": [
    {
      "uri": "texturesFloralDress/FABRIC_1_FRONT_58761_baseColor.jpeg"
    },
    {
      "uri": "texturesFloralDress/FABRIC_3_FRONT_59259_baseColor.jpeg"
    },
    {
      "uri": "texturesFloralDress/FABRIC_2_FRONT_59128_baseColor.jpeg"
    },
    {
      "uri": "texturesFloralDress/02_FRONT_58979_baseColor.jpeg"
    },
    {
      "uri": "texturesFloralDress/FABRIC_4_FRONT_59314_baseColor.jpeg"
    }
  ],
  "materials": [
    {
      "doubleSided": true,
      "name": "FABRIC_1_FRONT_58761",
      "pbrMetallicRoughness": {
        "baseColorFactor": [
          1,
          1,
          1,
          1
        ],
        "baseColorTexture": {
          "index": 0,
          "texCoord": 0
        },
        "metallicFactor": 0,
        "roughnessFactor": 0.59999999999999998
      }
    },
    {
      "doubleSided": true,
      "name": "02_FRONT_58979",
      "pbrMetallicRoughness": {
        "baseColorFactor": [
          1,
          1,
          1,
          1
        ],
        "baseColorTexture": {
          "index": 3,
          "texCoord": 0
        },
        "metallicFactor": 0,
        "roughnessFactor": 0.59999999999999998
      }
    },
    {
      "doubleSided": true,
      "name": "FABRIC_2_FRONT_59128",
      "pbrMetallicRoughness": {
        "baseColorFactor": [
          1,
          1,
          1,
          1
        ],
        "baseColorTexture": {
          "index": 2,
          "texCoord": 0
        },
        "metallicFactor": 0,
        "roughnessFactor": 0.59999999999999998
      }
    },
    {
      "doubleSided": true,
      "name": "FABRIC_3_FRONT_59259",
      "pbrMetallicRoughness": {
        "baseColorFactor": [
          1,
          1,
          1,
          1
        ],
        "baseColorTexture": {
          "index": 1,
          "texCoord": 0
        },
        "metallicFactor": 0,
        "roughnessFactor": 0.59999999999999998
      }
    },
    {
      "doubleSided": true,
      "name": "FABRIC_4_FRONT_59314",
      "pbrMetallicRoughness": {
        "baseColorFactor": [
          1,
          1,
          1,
          1
        ],
        "baseColorTexture": {
          "index": 4,
          "texCoord": 0
        },
        "metallicFactor": 0,
        "roughnessFactor": 0.59999999999999998
      }
    }
  ],
  "meshes": [
    {
      "name": "to max from substance_FABRIC 1_FRONT_58761_0",
      "primitives": [
        {
          "attributes": {
            "NORMAL": 1,
            "POSITION": 0,
            "TANGENT": 2,
            "TEXCOORD_0": 3
          },
          "indices": 4,
          "material": 0,
          "mode": 4
        }
      ]
    },
    {
      "name": "to max from substance_02_FRONT_58979_0",
      "primitives": [
        {
          "attributes": {
            "NORMAL": 6,
            "POSITION": 5,
            "TANGENT": 7,
            "TEXCOORD_0": 8
          },
          "indices": 9,
          "material": 1,
          "mode": 4
        }
      ]
    },
    {
      "name": "to max from substance_FABRIC 2_FRONT_59128_0",
      "primitives": [
        {
          "attributes": {
            "NORMAL": 11,
            "POSITION": 10,
            "TANGENT": 12,
            "TEXCOORD_0": 13
          },
          "indices": 14,
          "material": 2,
          "mode": 4
        }
      ]
    },
    {
      "name": "to max from substance_FABRIC 3_FRONT_59259_0",
      "primitives": [
        {
          "attributes": {
            "NORMAL": 16,
            "POSITION": 15,
            "TANGENT": 17,
            "TEXCOORD_0": 18
          },
          "indices": 19,
          "material": 3,
          "mode": 4
        }
      ]
    },
    {
      "name": "to max from substance_FABRIC 4_FRONT_59314_0",
      "primitives": [
        {
          "attributes": {
            "NORMAL": 21,
            "POSITION": 20,
            "TANGENT": 22,
            "TEXCOORD_0": 23
          },
          "indices": 24,
          "material": 4,
          "mode": 4
        }
      ]
    }
  ],
  "nodes": [
    {
      "children": [
        1
      ],
      "name": "RootNode (gltf orientation matrix)",
      "rotation": [
        -0.70710678118654746,
        -0,
        -0,
        0.70710678118654757
      ]
    },
    {
      "children": [
        2
      ],
      "name": "RootNode (model correction matrix)"
    },
    {
      "children": [
        3
      ],
      "matrix": [
        1,
        0,
        0,
        0,
        0,
        0,
        1,
        0,
        0,
        -1,
        0,
        0,
        0,
        0,
        0,
        1
      ],
      "name": "abbc405e7c064037b67eb7c0f2f2b34f.fbx"
    },
    {
      "children": [
        4
      ],
      "name": "RootNode"
    },
    {
      "children": [
        5,
        6,
        7,
        8,
        9
      ],
      "matrix": [
        0.10000000149011612,
        0,
        0,
        0,
        0,
        0.10000000149011612,
        0,
        0,
        0,
        0,
        0.10000000149011612,
        0,
        0,
        0,
        0,
        1
      ],
      "name": "to max from substance"
    },
    {
      "mesh": 0,
      "name": "to max from substance_FABRIC 1_FRONT_58761_0"
    },
    {
      "mesh": 1,
      "name": "to max from substance_02_FRONT_58979_0"
    },
    {
      "mesh": 2,
      "name": "to max from substance_FABRIC 2_FRONT_59128_0"
    },
    {
      "mesh": 3,
      "name": "to max from substance_FABRIC 3_FRONT_59259_0"
    },
    {
      "mesh": 4,
      "name": "to max from substance_FABRIC 4_FRONT_59314_0"
    }
  ],
  "samplers": [
    {
      "magFilter": 9729,
      "minFilter": 9987,
      "wrapS": 10497,
      "wrapT": 10497
    }
  ],
  "scene": 0,
  "scenes": [
    {
      "name": "OSG_Scene",
      "nodes": [
        0
      ]
    }
  ],
  "textures": [
    {
      "sampler": 0,
      "source": 0
    },
    {
      "sampler": 0,
      "source": 1
    },
    {
      "sampler": 0,
      "source": 2
    },
    {
      "sampler": 0,
      "source": 3
    },
    {
      "sampler": 0,
      "source": 4
    }
  ]
}

