{
  "accessors": [
    {
      "bufferView": 2,
      "componentType": 5126,
      "count": 5401,
      "max": [
        15.257519721984863,
        11.318643569946289,
        104.27297973632813
      ],
      "min": [
        -15.24075698852539,
        -11.941156387329102,
        74.18065643310547
      ],
      "type": "VEC3"
    },
    {
      "bufferView": 2,
      "byteOffset": 64812,
      "componentType": 5126,
      "count": 5401,
      "max": [
        0.9999977350234985,
        0.9999467730522156,
        0.9998622536659241
      ],
      "min": [
        -0.999933123588562,
        -0.9999130964279175,
        -0.9995377659797668
      ],
      "type": "VEC3"
    },
    {
      "bufferView": 3,
      "componentType": 5126,
      "count": 5401,
      "max": [
        0.9999008774757385,
        0.9999977350234985,
        0.9968989491462708,
        1.0
      ],
      "min": [
        -0.999969482421875,
        -0.9998783469200134,
        -0.9999866485595703,
        -1.0
      ],
      "type": "VEC4"
    },
    {
      "bufferView": 1,
      "componentType": 5126,
      "count": 5401,
      "max": [
        0.994517982006073,
        1.0
      ],
      "min": [
        0.0,
        0.0
      ],
      "type": "VEC2"
    },
    {
      "bufferView": 0,
      "componentType": 5125,
      "count": 25290,
      "type": "SCALAR"
    }
  ],
  "asset": {
    "extras": {
      "author": "Yasmany Batista (https://sketchfab.com/Yazz_ll)",
      "license": "CC-BY-4.0 (http://creativecommons.org/licenses/by/4.0/)",
      "source": "https://sketchfab.com/3d-models/plaid-gothic-mini-skirt-7a1869479e58422b84ad18533b5b4439",
      "title": "Plaid Gothic Mini Skirt"
    },
    "generator": "Sketchfab-11.96.0",
    "version": "2.0"
  },
  "bufferViews": [
    {
      "buffer": 0,
      "byteLength": 101160,
      "name": "floatBufferViews",
      "target": 34963
    },
    {
      "buffer": 0,
      "byteLength": 43208,
      "byteOffset": 101160,
      "byteStride": 8,
      "name": "floatBufferViews",
      "target": 34962
    },
    {
      "buffer": 0,
      "byteLength": 129624,
      "byteOffset": 144368,
      "byteStride": 12,
      "name": "floatBufferViews",
      "target": 34962
    },
    {
      "buffer": 0,
      "byteLength": 86416,
      "byteOffset": 273992,
      "byteStride": 16,
      "name": "floatBufferViews",
      "target": 34962
    }
  ],
  "buffers": [
    {
      "byteLength": 360408,
      "uri": "miniSkirt.bin"
    }
  ],
  "images": [
    {
      "uri": "texturesMiniSkirt/lambert2SG_baseColor.png"
    },
    {
      "uri": "texturesMiniSkirt/lambert2SG_metallicRoughness.png"
    },
    {
      "uri": "texturesMiniSkirt/lambert2SG_normal.png"
    }
  ],
  "materials": [
    {
      "alphaMode": "BLEND",
      "doubleSided": true,
      "name": "lambert2SG",
      "normalTexture": {
        "index": 2
      },
      "pbrMetallicRoughness": {
        "baseColorTexture": {
          "index": 0
        },
        "metallicRoughnessTexture": {
          "index": 1
        }
      }
    }
  ],
  "meshes": [
    {
      "name": "Object_0",
      "primitives": [
        {
          "attributes": {
            "NORMAL": 1,
            "POSITION": 0,
            "TANGENT": 2,
            "TEXCOORD_0": 3
          },
          "indices": 4,
          "material": 0,
          "mode": 4
        }
      ]
    }
  ],
  "nodes": [
    {
      "children": [
        1
      ],
      "matrix": [
        1.0,
        0.0,
        0.0,
        0.0,
        0.0,
        2.220446049250313e-16,
        -1.0,
        0.0,
        0.0,
        1.0,
        2.220446049250313e-16,
        0.0,
        0.0,
        0.0,
        0.0,
        1.0
      ],
      "name": "Sketchfab_model"
    },
    {
      "children": [
        2
      ],
      "name": "test.obj.cleaner.materialmerger.gles"
    },
    {
      "mesh": 0,
      "name": "Object_2"
    }
  ],
  "samplers": [
    {
      "magFilter": 9729,
      "minFilter": 9987,
      "wrapS": 10497,
      "wrapT": 10497
    }
  ],
  "scene": 0,
  "scenes": [
    {
      "name": "Sketchfab_Scene",
      "nodes": [
        0
      ]
    }
  ],
  "textures": [
    {
      "sampler": 0,
      "source": 0
    },
    {
      "sampler": 0,
      "source": 1
    },
    {
      "sampler": 0,
      "source": 2
    }
  ]
}
